<svg version="1.1" xmlns="http://www.w3.org/2000/svg" width="512" height="512" viewBox="0 0 512 512" role="img" aria-labelledby="gc-title gc-desc">
  <title id="gc-title">Google Chat</title>
  <desc id="gc-desc">Google Chat speech bubble icon with four-color brand treatment and clipped top-right corner.</desc>
  <defs>
    <clipPath id="gc-scalable-clip">
      <path d="M 153.6,87.0 L 368.6,87.0 L 419.8,138.2 L 419.8,297.0 A 61.4,61.4 0 0 1 358.4,358.4 L 169.0,358.4 L 81.9,419.8 L 102.4,358.4 L 153.6,358.4 A 61.4,61.4 0 0 1 92.2,297.0 L 92.2,148.5 A 61.4,61.4 0 0 1 153.6,87.0 Z"/>
    </clipPath>
  </defs>
  <g>
    <path d="M 153.6,87.0 L 368.6,87.0 L 419.8,138.2 L 419.8,297.0 A 61.4,61.4 0 0 1 358.4,358.4 L 169.0,358.4 L 81.9,419.8 L 102.4,358.4 L 153.6,358.4 A 61.4,61.4 0 0 1 92.2,297.0 L 92.2,148.5 A 61.4,61.4 0 0 1 153.6,87.0 Z" fill="#34A853"/>
    <rect x="0" y="0" width="256.0" height="512.0" fill="#4285F4" clip-path="url(#gc-scalable-clip)"/>
    <rect x="0" y="0" width="512.0" height="138.2" fill="#FBBC05" clip-path="url(#gc-scalable-clip)"/>
    <polygon points="368.6,87.0 419.8,138.2 358.4,138.2" fill="#EA4335" clip-path="url(#gc-scalable-clip)"/>
  </g>
  <path d="M 189.4,148.5 L 327.7,148.5 L 358.4,179.2 L 358.4,240.6 A 35.8,35.8 0 0 1 322.6,276.5 L 189.4,276.5 A 35.8,35.8 0 0 1 153.6,240.6 L 153.6,184.3 A 35.8,35.8 0 0 1 189.4,148.5 Z" fill="#FFFFFF"/>
  
</svg>