<svg version="1.1" xmlns="http://www.w3.org/2000/svg" width="512" height="512" viewBox="0 0 512 512" role="img" aria-labelledby="gc-title gc-desc">
  <title id="gc-title">Google Chat</title>
  <desc id="gc-desc">Google Chat speech bubble icon with four-color brand treatment and clipped top-right corner.</desc>
  <defs>
    <clipPath id="gc-scalable-clip">
      <path d="M 133.1,46.1 L 389.1,46.1 L 460.8,117.8 L 460.8,317.4 A 81.9,81.9 0 0 1 378.9,399.4 L 133.1,399.4 L 43.5,458.2 L 64.0,399.4 L 133.1,399.4 A 81.9,81.9 0 0 1 51.2,317.4 L 51.2,128.0 A 81.9,81.9 0 0 1 133.1,46.1 Z"/>
    </clipPath>
  </defs>
  <g>
    <path d="M 133.1,46.1 L 389.1,46.1 L 460.8,117.8 L 460.8,317.4 A 81.9,81.9 0 0 1 378.9,399.4 L 133.1,399.4 L 43.5,458.2 L 64.0,399.4 L 133.1,399.4 A 81.9,81.9 0 0 1 51.2,317.4 L 51.2,128.0 A 81.9,81.9 0 0 1 133.1,46.1 Z" fill="#34A853"/>
    <rect x="0" y="0" width="281.6" height="512.0" fill="#4285F4" clip-path="url(#gc-scalable-clip)"/>
    <rect x="0" y="0" width="512.0" height="117.8" fill="#FBBC05" clip-path="url(#gc-scalable-clip)"/>
    <polygon points="389.1,46.1 460.8,117.8 378.9,117.8" fill="#EA4335" clip-path="url(#gc-scalable-clip)"/>
  </g>
  <path d="M 169.0,117.8 L 337.9,117.8 L 378.9,158.7 L 378.9,261.1 A 46.1,46.1 0 0 1 332.8,307.2 L 169.0,307.2 A 46.1,46.1 0 0 1 122.9,261.1 L 122.9,163.8 A 46.1,46.1 0 0 1 169.0,117.8 Z" fill="#FFFFFF"/>
  
</svg>